<?xml version='1.0' encoding='utf-8'?>
<svg xmlns="http://www.w3.org/2000/svg" enable-background="new 0 0 5000 1520.5569" version="1.1" viewBox="0 0 5e3 1520.6"> <path d="m4596.2 1017.4c-6.1494-6.1492-2.1074-10.987 14.392-17.23 108.96-41.228 385.23-219.41 385.23-248.46 0-20.988-223.74-166.87-337.97-220.37-33.532-15.704-58.627-30.891-55.766-33.75 2.8633-2.8583 93.345-3.9187 201.07-2.3545l195.87 2.8429 0.5034-248.96 0.5039-248.97h-331.06v77.916c0 84.594-1.5571 87.478-47.255 87.478-45.698 0-47.255-2.8842-47.255-87.478 0-56.992-2.6436-77.964-9.8447-78.082-17.811-0.3009-1390.1 2.3814-1663.8 3.2525l-267.78 0.8518-1.1343 72.873c-0.623 40.081-3.29 78.494-5.9263 85.361-3.8438 10.019-16.073 12.183-61.873 10.95-31.394-0.8432-59.738-1.1575-62.988-0.6932v-0.0077c-0.375 0.0534-0.7412 1.1734-1.0969 3.0684-0.3557-1.8949-0.7219-3.015-1.0969-3.0684v0.0077c-3.2495-0.4644-31.594-0.15-62.988 0.6932-45.8 1.2335-58.029-0.9306-61.873-10.95-2.6362-6.8674-5.3032-45.28-5.9263-85.361l-1.1343-72.873-267.78-0.8518c-273.68-0.8711-1646-3.5534-1663.8-3.2525-7.201 0.1183-9.8448 21.09-9.8448 78.082 0 84.594-1.5575 87.478-47.255 87.478s-47.255-2.8842-47.255-87.478v-77.916h-331.06l0.5038 248.97 0.5038 248.96 195.87-2.8429c107.73-1.5642 198.21-0.5038 201.07 2.3545 2.8621 2.8592-22.233 18.047-55.766 33.75-114.23 53.494-337.97 199.38-337.97 220.37 0 29.05 276.27 207.23 385.23 248.46 16.5 6.2434 20.542 11.081 14.391 17.23-5.8704 5.8713-70.421 7.5336-206.06 5.306l-197.5-3.2438v501.06l326.85-4.2582 2.2747-78.482c1.2604-43.49 5.9415-80.749 10.498-83.566 9.4776-5.8579 67.01-2.1382 78.703 5.0878 4.5398 2.8064 7.2183 37.025 6.3338 80.912l-1.5334 76.049 759.14 1.6547c417.53 0.9104 851.29 1.9073 963.91 2.2151 112.63 0.3076 209.52 0.449 215.33 0.3153 8.3027-0.1895 9.8679-16.317 7.3298-75.508-4.2649-99.503-2.2939-102 75.465-95.423l50.607 4.2772v0.8134l4.8101-0.4066 4.8101 0.4066v-0.8134l50.607-4.2772c77.759-6.5732 79.73-4.0803 75.465 95.423-2.5381 59.191-0.9729 75.319 7.3298 75.508 5.8069 0.1337 102.71-0.0077 215.33-0.3153 112.63-0.3077 546.39-1.3047 963.91-2.2151l759.14-1.6547-1.5322-76.049c-0.8848-43.886 1.7939-78.105 6.3335-80.912 11.693-7.226 69.226-10.946 78.703-5.0878 4.5552 2.8169 9.2373 40.076 10.497 83.566l2.2744 78.482 326.85 4.2582v-501.06l-197.5 3.2438c-135.63 2.2276-200.19 0.5653-206.06-5.3061zm51.395-419.48c99.243 52.388 241.3 143.52 241.65 155.03 0.3169 10.45-78.757 69.93-121.82 91.635-17.327 8.7325-36.82 20.475-43.317 26.094-14.438 12.486-161.01 87.836-220.52 113.37-23.824 10.221-84.393 37.405-134.59 60.407-108.8 49.854-362.63 135.94-483.66 164.03-192.65 44.712-367.9 64.944-663.66 76.62-122.6 4.8397-224.24 7.4414-225.87 5.782-1.6345-1.6604-5.3975-16.003-8.3623-31.875-6.7646-36.226 5.0281-43.706 70.931-44.986 166.79-3.2419 399.76-43.933 593.91-103.73 149.12-45.93 217.71-73.462 345.18-138.54 234.67-119.82 352.13-201.77 504.45-351.95l65.253-64.34 80.451 42.466zm-1658.2-205.94c2.8149-12.333 14.892-13.819 114.8-13.74 178.62 0.0692 373.73 33.9 536.95 93.106 135.53 49.162 288.39 132.53 293.72 160.19 2.2422 11.637-104.78 124.01-125.03 131.28-4.0532 1.4565-24.176-11.109-44.715-27.923-34.272-28.057-62.857-48.796-95.418-69.234-6.9028-4.3322-26.783-17.171-44.183-28.53-82.216-53.682-281.27-132.82-403.58-160.46-29.344-6.6309-91.488-14.997-138.1-18.593-46.609-3.5957-86.266-8.0595-88.125-9.9189-5.6397-5.6396-9.6834-41.515-6.3318-56.19zm-2.4536-127.98c-8.5623-31.881 7.6184-35.47 157.63-34.943 323.72 1.1345 662.33 48.131 906.83 125.86 118.74 37.75 214.23 71.031 314.33 109.55 64.674 24.887 129.95 58.901 129.95 67.71 0 15.971-200.04 191.81-258.62 227.33-6.8623 4.16-19.197-1.6315-35.441-16.643-68.374-63.183-217.29-172.17-310.35-227.14-226.85-133.98-510.24-207.8-799.47-208.25-90.284-0.1404-100.43-1.5469-100.53-13.938v9e-4c-0.0596-7.5807-2.0112-20.871-4.3379-29.535zm556.16 397.73c24.581 0 204.06 125.01 204.24 142.26 0.071 6.7703-9.6179 21.614-21.53 32.985-36.27 34.623-232.98 151.54-314.78 187.09-42.375 18.415-91.223 39.77-108.55 47.454-81.67 36.22-281.64 85.462-307.22 75.65v1e-3c-14.329-5.4993-15.715-47.348-1.9133-57.763 5.4148-4.0861 38.639-16.698 73.831-28.025 104.34-33.584 158.41-61.889 247.12-129.37 64.034-48.707 153.9-153.22 200.25-232.87 11.972-20.576 24.818-37.41 28.548-37.41zm1389.7-429.24 0.2925 63.007c0.1577 34.654-1.0654 78.956-2.7188 98.449l-3.0073 35.442-249.21-1.9324c-247-1.9151-249.58-2.1064-290.44-21.454-22.676-10.737-50.222-21.778-61.211-24.536-59.621-14.963-5.0913-19.022 255.61-19.022 311.7 0 303.46 1.3287 286.71-46.207l-7.3086-20.738h-763.55l-104.36-26.98-2e-3 -1e-3c-57.394-14.839-104.36-29.928-104.36-33.529s234.8-5.6358 521.78-4.5225l521.78 2.0248zm-2169.1-64.476c-51.87 4.0004-63.061 2.7708-66.945-7.3529l-2e-3 -0.0029c-6.8684-17.897-5.4495-68.317 2.2651-80.487 5.5183-8.7075 164.06-10.714 907.58-11.486l900.89-0.9354v93.855l-771.84 1.8882c-424.51 1.0393-779.89 2.8112-789.73 3.9379l-17.896 2.0497-1.7942 236.28-1.7959 236.28-105.16 3.9379c-57.84 2.1689-108.16 2.0757-111.82-0.2048s-9.116-36.836-12.133-76.79l-5.4839-72.644h136.15v-333.12l-62.28 4.8022zm-2271.2-100.26 900.89 0.9354c743.51 0.772 902.06 2.7785 907.58 11.486 7.7146 12.17 9.1335 62.59 2.2651 80.487l-2e-3 0.0029c-3.884 10.124-15.075 11.353-66.945 7.3529l-62.28-4.8023v333.12h136.15l-5.4841 72.644c-3.0168 39.954-8.4756 74.51-12.133 76.79s-53.976 2.3737-111.82 0.2048l-105.16-3.9379-1.7959-236.28-1.7942-236.28-17.896-2.0497c-9.8409-1.1268-365.22-2.8987-789.73-3.9379l-771.84-1.8882v-93.855zm1205 1003.8c-17.326-7.6846-66.174-29.039-108.55-47.454-81.8-35.549-278.51-152.46-314.78-187.09-11.912-11.372-21.6-26.215-21.53-32.985 0.1808-17.248 179.66-142.26 204.24-142.26 3.7294 0 16.576 16.834 28.547 37.41 46.344 79.652 136.21 184.16 200.24 232.87 88.71 67.48 142.78 95.785 247.12 129.37 35.192 11.327 68.416 23.939 73.831 28.025 13.802 10.415 12.416 52.263-1.9133 57.763v-1e-3c-25.572 9.8121-225.55-39.429-307.22-75.65zm-323.04-434.38c-17.399 11.359-37.28 24.198-44.182 28.53-32.562 20.438-61.146 41.177-95.419 69.234-20.54 16.814-40.662 29.38-44.715 27.923-20.249-7.2722-127.27-119.65-125.03-131.28 5.3271-27.663 158.19-111.03 293.72-160.19 163.22-59.206 358.33-93.037 536.95-93.106 99.908-0.0788 111.99 1.4075 114.8 13.74 3.3516 14.675-0.6921 50.55-6.3318 56.19-1.8594 1.8594-41.516 6.3232-88.125 9.9189s-108.75 11.962-138.1 18.593c-122.31 27.634-321.36 106.77-403.58 160.46zm634.25-343.6v-9e-4c-0.0941 12.392-10.241 13.798-100.53 13.938-289.23 0.449-572.62 74.269-799.47 208.25-93.062 54.966-241.98 163.96-310.35 227.14-16.244 15.012-28.579 20.803-35.442 16.643-58.573-35.515-258.62-211.36-258.62-227.33 0-8.8094 65.279-42.823 129.95-67.71 100.09-38.519 195.58-71.8 314.33-109.55 244.5-77.731 583.11-124.73 906.83-125.86 150.01-0.5278 166.19 3.0611 157.63 34.943-2.3264 8.6633-4.2781 21.954-4.3378 29.535zm-1686.9 133.93-249.21 1.9324-3.0073-35.442c-1.6536-19.493-2.8775-63.794-2.7189-98.449l0.2913-63.007 521.78-2.0247c286.98-1.1133 521.78 0.921 521.78 4.5225s-46.96 18.69-104.36 33.529l-1e-3 1e-3 -104.36 26.98h-763.55l-7.3077 20.738c-16.752 47.536-24.989 46.207 286.71 46.207 260.7 0 315.23 4.0581 255.61 19.022-10.989 2.7583-38.534 13.799-61.21 24.536-40.864 19.347-43.445 19.539-290.44 21.454zm-45.938 443.22c-6.4972-5.6185-25.991-17.361-43.317-26.094-43.061-21.705-122.13-81.186-121.82-91.635 0.3461-11.505 142.4-102.64 241.65-155.03l80.45-42.466 65.254 64.34c152.32 150.18 269.78 232.13 504.45 351.95 127.46 65.078 196.06 92.61 345.18 138.54 194.15 59.799 427.12 100.49 593.91 103.73 65.903 1.2806 77.696 8.7604 70.931 44.986-2.965 15.872-6.7279 30.214-8.3623 31.875-1.6344 1.6594-103.28-0.9423-225.87-5.782-295.77-11.676-471.01-31.907-663.66-76.62-121.04-28.092-374.86-114.17-483.66-164.03-50.202-23.003-110.77-50.187-134.59-60.407-59.511-25.531-206.09-100.88-220.52-113.37zm-201.54 407.95c-9.4699-3.6342-11.189-21.228-9.3824-96.055l2.2132-91.607 513.35 0.6615 46.546 20.297c25.6 11.163 53.256 22.617 61.456 25.454 8.2009 2.8361 13.013 7.0538 10.693 9.3728-2.3199 2.3188-131.3 4.8945-286.63 5.7213l-282.41 1.5037-4.8436 66.945h767.51l103.04 24.309c123.96 29.247 126.24 29.93 120.2 35.975-2.6305 2.6304-235.49 4.1273-517.46 3.3274l-0.0029-0.0018c-281.97-0.8-517.89-3.4564-524.27-5.9041zm2231.8-326.84-2.2495 76.171-129.29-5.6436-2.2979 156.4c-1.2632 86.022-1.2134 160.36 0.1096 165.2 1.5403 5.6156 24.333 8.4653 63.007 7.876l60.598-0.924v100.61l-897.01-1.3171c-493.36-0.725-900.05-3.1919-903.76-5.4849-8.5547-5.2869-8.6181-66.85-0.0788-80.302 5.1599-8.1326 160.45-10.063 791.41-9.8362l784.99 0.2836v-235.82c0-149.83 2.8918-237.61 7.9316-240.72 10.968-6.777 195.93-13.131 214.12-7.3558 13.325 4.2293 14.556 12.176 12.531 80.861zm322.2-146.21 1.1306 105.79c0.623 58.185-0.8403 107.76-3.2515 110.17-2.4114 2.4112-32.898 4.1937-67.749 3.9649l-53.743-0.3539v-0.0635l-4.8101 0.0317-4.8101-0.0317v0.0635l-53.743 0.3539c-34.851 0.2288-65.337-1.5537-67.749-3.9649-2.4111-2.4113-3.8745-51.989-3.2515-110.17l1.1306-105.79-364.06-0.473 2.3612 101.08c1.2979 55.596 0.2057 103.24-2.4247 105.87-9.2681 9.268-82.332-14.385-155.15-50.225-68.549-33.739-197.53-128.71-216.47-159.38-5.4781-8.8748-4.9099-20.149 1.8353-36.433 10.428-25.175 89.243-109.17 144.5-154.01 51.691-41.939 138.54-83.87 185.11-89.368l41.348-4.8811 0.0077 195.15 361.85 2.118 4.3686-214.76 125.14-4.4052 125.14 4.4052 4.3686 214.76 361.85-2.118 0.0076-195.15 41.349 4.8811c46.565 5.4983 133.42 47.429 185.11 89.368 55.26 44.833 134.08 128.83 144.5 154.01 6.7451 16.283 7.3125 27.558 1.8342 36.433-18.934 30.675-147.92 125.65-216.47 159.38-72.821 35.84-145.88 59.493-155.15 50.225-2.6306-2.6324-3.7227-50.274-2.4248-105.87l2.3613-101.08-364.06 0.473zm1876.3 639.1c-3.709 2.293-410.4 4.7599-903.76 5.4849l-897.02 1.3171v-100.61l60.598 0.924c38.674 0.5894 61.467-2.2604 63.007-7.876 1.323-4.8397 1.3728-79.18 0.1096-165.2l-2.2979-156.4-129.29 5.6436-2.2498-76.171c-2.0249-68.684-0.7942-76.631 12.531-80.86 18.198-5.7752 203.16 0.5787 214.12 7.3558 5.0398 3.1149 7.9316 90.895 7.9316 240.72v235.82l784.99-0.2836c630.96-0.2269 786.25 1.7036 791.41 9.8362 8.539 13.452 8.4756 75.015-0.0791 80.302zm430.31-262.11c1.8057 74.827 0.0864 92.421-9.3833 96.055-6.376 2.4478-242.3 5.1041-524.27 5.9041l-0.0034 0.0018c-281.97 0.7999-514.83-0.697-517.46-3.3274-6.0454-6.0454-3.7629-6.728 120.2-35.975l103.03-24.309h767.51l-4.8438-66.945-282.41-1.5037c-155.33-0.8268-284.31-3.4025-286.63-5.7213-2.3208-2.319 2.4922-6.5367 10.693-9.3728 8.2007-2.8372 35.855-14.292 61.456-25.454l46.546-20.297 513.35-0.6615 2.2132 91.607z"/> </svg>